<svg xmlns="http://www.w3.org/2000/svg" width="31.929" height="29.961" viewBox="0 0 31.929 29.961">
  <path id="Icon_awesome-calendar-check" data-name="Icon awesome-calendar-check" d="M31.073,9.363H.855A.79.79,0,0,1,0,8.66V6.554C0,5,1.532,3.745,3.421,3.745H6.842V.7A.79.79,0,0,1,7.7,0h2.851A.79.79,0,0,1,11.4.7V3.745h9.122V.7a.79.79,0,0,1,.855-.7h2.851a.79.79,0,0,1,.855.7V3.745h3.421c1.889,0,3.421,1.258,3.421,2.809V8.66A.79.79,0,0,1,31.073,9.363ZM.855,11.235H31.073a.79.79,0,0,1,.855.7V27.152c0,1.551-1.532,2.809-3.421,2.809H3.421C1.532,29.961,0,28.7,0,27.152V11.937A.79.79,0,0,1,.855,11.235ZM24.609,16.85,22.6,15.188a.992.992,0,0,0-1.209,0l-7.557,6.155-3.277-2.712a.992.992,0,0,0-1.21,0L7.324,20.271a.617.617,0,0,0,0,.993l5.887,4.873a.992.992,0,0,0,1.209,0l10.188-8.3a.617.617,0,0,0,0-.993Z" fill="#fff"/>
</svg>
