<?xml version="1.0" standalone="no"?>
<!DOCTYPE svg PUBLIC "-//W3C//DTD SVG 20010904//EN"
 "http://www.w3.org/TR/2001/REC-SVG-20010904/DTD/svg10.dtd">
<svg version="1.0" xmlns="http://www.w3.org/2000/svg"
 width="479.000000pt" height="521.000000pt" viewBox="0 0 479.000000 521.000000"
 preserveAspectRatio="xMidYMid meet">

<g transform="translate(0.000000,521.000000) scale(0.100000,-0.100000)"
fill="#000000" stroke="none">
<path d="M2170 4268 c-27 -44 -25 -99 6 -175 l25 -64 -29 -52 c-29 -52 -31
-77 -7 -77 20 0 63 56 76 100 11 35 9 47 -10 97 -32 82 -35 106 -16 143 31 60
-10 86 -45 28z"/>
<path d="M2421 4266 c-11 -12 -26 -36 -32 -53 -9 -28 -6 -40 25 -104 34 -69
35 -72 19 -103 -8 -17 -24 -41 -35 -53 -22 -23 -18 -53 6 -53 19 0 70 66 86
111 12 34 11 40 -18 94 -35 64 -40 106 -17 125 19 16 19 46 1 53 -8 3 -23 -4
-35 -17z"/>
<path d="M2651 4256 c-30 -49 -27 -103 11 -180 l32 -65 -27 -40 c-29 -44 -34
-66 -15 -77 17 -11 76 62 84 103 5 28 -1 49 -31 108 l-37 74 21 36 c11 20 21
45 21 56 0 31 -36 23 -59 -15z"/>
<path d="M2346 3689 c-35 -28 -59 -76 -52 -104 5 -21 1 -24 -47 -35 -149 -35
-285 -111 -396 -220 -94 -93 -153 -178 -192 -278 -16 -42 -34 -87 -39 -100 -6
-13 -10 -37 -10 -53 0 -25 4 -30 21 -27 17 2 26 18 43 78 82 275 331 500 623
560 73 16 233 16 308 0 129 -27 283 -111 378 -206 114 -115 201 -298 214 -450
l6 -73 -199 4 c-109 3 -408 10 -664 15 -256 6 -556 13 -667 16 l-203 6 -10
-27 c-38 -99 46 -232 171 -269 27 -8 97 -14 170 -15 68 -1 341 -6 607 -11 266
-6 487 -8 493 -5 5 4 9 14 9 25 0 16 -11 19 -92 24 -51 3 -327 8 -613 11 -594
7 -588 6 -655 82 -41 47 -55 77 -48 108 4 20 -62 20 913 5 363 -6 724 -13 803
-16 140 -6 142 -6 142 -29 0 -69 -51 -129 -129 -152 -42 -12 -78 -14 -148 -10
-103 7 -123 3 -123 -23 0 -26 19 -30 134 -30 130 0 193 18 251 71 49 45 63 79
67 159 l3 55 -81 3 -80 3 -12 92 c-16 127 -44 213 -103 313 -111 188 -332 344
-525 371 -43 6 -44 7 -44 42 0 38 -27 78 -67 99 -37 20 -127 15 -157 -9z m137
-40 c28 -15 37 -28 37 -56 0 -22 -4 -23 -84 -23 -77 0 -84 2 -89 21 -13 51 77
89 136 58z"/>
<path d="M2446 3383 c-9 -22 10 -41 25 -26 13 13 5 43 -10 43 -5 0 -12 -8 -15
-17z"/>
<path d="M2569 3384 c-11 -14 -10 -18 6 -30 10 -8 24 -14 31 -14 23 0 90 -36
154 -82 68 -50 131 -120 181 -200 15 -27 36 -48 44 -48 28 0 28 30 -1 73 -15
23 -39 59 -53 80 -51 78 -173 172 -280 215 -64 26 -65 26 -82 6z"/>
</g>
</svg>
