<?xml version="1.0" standalone="no"?>
<!DOCTYPE svg PUBLIC "-//W3C//DTD SVG 20010904//EN"
 "http://www.w3.org/TR/2001/REC-SVG-20010904/DTD/svg10.dtd">
<svg version="1.0" xmlns="http://www.w3.org/2000/svg"
 width="452.000000pt" height="553.000000pt" viewBox="0 0 452.000000 553.000000"
 preserveAspectRatio="xMidYMid meet">

<g transform="translate(0.000000,553.000000) scale(0.100000,-0.100000)"
fill="#000000" stroke="none">
<path d="M2150 4333 c0 -10 8 -23 19 -30 10 -6 29 -33 41 -58 33 -67 29 -135
-15 -273 -48 -152 -52 -192 -26 -267 24 -67 45 -95 61 -79 8 8 5 26 -10 63
-30 78 -26 147 16 266 59 167 56 261 -9 347 -35 46 -77 63 -77 31z"/>
<path d="M2495 4200 c-4 -6 3 -31 16 -56 l22 -46 -23 -91 c-28 -116 -28 -169
0 -235 25 -58 46 -80 61 -65 6 6 1 29 -16 67 -31 69 -32 132 -5 211 27 78 26
143 -2 185 -25 37 -43 47 -53 30z"/>
<path d="M1820 4178 c0 -8 5 -19 11 -25 22 -22 28 -83 12 -136 -8 -29 -20 -58
-25 -65 -19 -22 -29 -103 -18 -142 10 -39 74 -130 90 -130 19 0 10 40 -21 90
-37 60 -36 102 4 195 31 70 34 135 9 185 -17 36 -62 55 -62 28z"/>
<path d="M3175 3954 c-16 -14 -79 -59 -140 -100 -266 -183 -485 -353 -485
-376 0 -27 22 -22 71 17 64 50 324 242 408 300 134 93 206 151 209 168 5 25
-28 21 -63 -9z"/>
<path d="M3185 3680 c-44 -21 -136 -64 -205 -95 -303 -137 -343 -160 -311
-179 12 -8 134 45 416 179 50 23 101 46 115 50 41 13 102 55 97 68 -7 22 -31
17 -112 -23z"/>
<path d="M2466 3580 c-49 -55 -64 -108 -48 -165 15 -53 37 -37 40 29 3 55 7
64 53 117 27 31 49 59 49 63 0 3 -11 6 -24 6 -16 0 -39 -16 -70 -50z"/>
<path d="M2270 3542 c-53 -21 -70 -48 -70 -114 0 -41 3 -48 20 -48 16 0 20 7
20 36 0 51 15 73 67 95 26 11 43 24 41 32 -7 18 -28 18 -78 -1z"/>
<path d="M1995 3533 c-50 -13 -93 -88 -81 -139 10 -39 40 -27 44 16 2 19 13
46 25 58 22 24 24 24 122 10 26 -4 32 28 7 41 -25 13 -91 21 -117 14z"/>
<path d="M1709 3497 c-63 -18 -109 -53 -109 -83 0 -29 25 -32 40 -5 15 29 103
55 162 48 38 -5 50 -3 55 9 3 8 2 19 -4 25 -16 16 -96 19 -144 6z"/>
<path d="M1804 3323 l-302 -3 -6 -23 c-18 -68 5 -208 46 -276 61 -102 152
-183 242 -216 46 -17 78 -18 444 -11 291 5 402 10 426 20 53 22 157 121 203
193 56 87 75 151 71 245 l-3 73 -410 0 c-225 0 -546 -1 -711 -2z m1080 -103
c-2 -119 -97 -268 -222 -349 l-47 -30 -391 -7 -390 -7 -64 34 c-139 74 -221
197 -228 341 l-4 78 558 3 c308 1 611 2 674 2 l115 0 -1 -65z"/>
</g>
</svg>
