<?xml version="1.0" standalone="no"?>
<!DOCTYPE svg PUBLIC "-//W3C//DTD SVG 20010904//EN"
 "http://www.w3.org/TR/2001/REC-SVG-20010904/DTD/svg10.dtd">
<svg version="1.0" xmlns="http://www.w3.org/2000/svg"
 width="476.000000pt" height="524.000000pt" viewBox="0 0 476.000000 524.000000"
 preserveAspectRatio="xMidYMid meet">

<g transform="translate(0.000000,524.000000) scale(0.100000,-0.100000)"
fill="#000000" stroke="none">
<path d="M2438 4080 c-16 -10 -18 -29 -18 -159 0 -136 -2 -149 -18 -154 -23
-5 -32 -45 -32 -133 l0 -64 -35 0 -35 0 0 210 c0 198 -1 210 -20 220 -12 7
-98 9 -237 8 l-218 -3 -3 -107 -3 -108 121 0 120 0 0 -105 0 -105 -327 -2
-328 -3 -3 -75 c-4 -111 -1 -120 53 -120 43 0 45 -1 45 -29 0 -113 63 -978 72
-989 8 -10 41 -13 126 -11 76 1 117 -2 121 -10 8 -12 1257 -48 1286 -37 8 3
15 13 15 22 0 9 9 27 19 40 32 40 36 95 12 150 -12 26 -18 50 -13 53 50 35 57
137 13 197 l-28 40 24 34 c54 79 52 151 -7 225 l-30 38 0 333 c0 299 -2 334
-17 342 -14 8 -15 26 -10 151 3 77 2 143 -2 145 -17 11 -627 16 -643 6z m148
-62 c-3 -13 -6 -74 -6 -135 l0 -113 -55 0 -55 0 0 104 c0 57 -3 118 -6 135
l-6 31 67 0 c65 0 67 -1 61 -22z m147 -40 c-2 -35 -6 -96 -9 -135 l-6 -73 -44
0 -44 0 0 135 0 135 53 0 53 0 -3 -62z m143 -65 c-4 -70 -8 -128 -9 -129 -1
-1 -23 -4 -49 -7 l-48 -7 0 68 c0 37 3 97 7 135 l6 67 50 0 50 0 -7 -127z
m164 -3 l0 -130 -60 0 -60 0 0 69 c0 37 3 96 6 130 l7 61 53 0 54 0 0 -130z
m-1040 -15 l0 -65 -64 0 c-49 0 -65 4 -70 16 -8 21 -8 99 1 107 3 4 35 7 70 7
l63 0 0 -65z m158 5 c-38 -35 -72 -59 -85 -60 -21 0 -23 4 -23 60 l0 60 85 0
86 0 -63 -60z m92 -65 l0 -85 -70 0 c-62 0 -70 2 -70 19 0 14 124 150 138 151
1 0 2 -38 2 -85z m820 -401 c0 -163 -3 -294 -7 -292 -166 85 -295 117 -502
125 l-153 6 6 36 c3 20 6 46 6 59 0 19 5 22 45 22 l45 0 0 78 c0 88 -8 102
-57 102 l-33 0 0 75 0 74 153 4 c83 1 230 4 325 5 l172 2 0 -296z m-820 205
l0 -72 -37 7 c-21 3 -53 6 -70 6 l-33 0 0 60 0 59 58 4 c31 2 63 4 70 5 9 1
12 -18 12 -69z m-98 -109 l308 0 0 -50 0 -50 -372 -2 c-365 -3 -373 -3 -373
-23 0 -20 8 -20 328 -23 l327 -2 0 -54 c0 -61 5 -57 -105 -71 -94 -12 -237
-55 -315 -96 -178 -92 -242 -227 -159 -334 21 -26 21 -28 5 -61 -23 -49 -21
-125 4 -157 l20 -26 -26 -38 c-21 -31 -25 -47 -22 -91 l3 -52 -82 0 -82 0 -5
43 c-3 23 -15 195 -26 382 -11 187 -23 364 -26 393 l-5 52 133 0 c137 0 165 6
155 34 -5 14 -27 16 -147 16 l-140 0 0 29 c0 25 4 30 28 33 19 2 28 9 30 26 3
21 1 22 -77 22 l-81 0 0 57 0 56 197 -6 c108 -4 335 -7 505 -7z m662 -344
c131 -34 211 -73 268 -130 71 -71 74 -132 10 -207 l-24 -29 -583 0 c-320 0
-596 3 -613 6 -42 8 -77 77 -67 130 13 73 147 167 302 214 139 42 207 50 413
46 172 -3 207 -6 294 -30z m290 -435 c28 -31 37 -79 21 -117 l-14 -34 -102 0
-101 0 -79 -77 -80 -77 -52 52 -52 52 47 0 c51 0 67 12 47 37 -12 14 -61 15
-436 12 l-422 -4 -28 28 c-33 32 -37 95 -8 127 18 19 34 20 630 20 584 0 613
-1 629 -19z m-448 -281 c45 -44 85 -80 90 -80 5 0 47 36 94 80 l84 80 71 0
c62 0 74 -3 94 -24 36 -38 38 -89 7 -136 l-26 -40 -118 1 c-351 2 -1079 26
-1098 37 -12 6 -27 24 -33 40 -16 37 7 98 41 112 13 5 178 9 367 9 l345 1 82
-80z"/>
<path d="M2040 3085 c-16 -19 -6 -45 19 -45 23 0 35 28 20 46 -15 18 -24 18
-39 -1z"/>
<path d="M2330 3065 c0 -20 5 -25 25 -25 20 0 25 5 25 25 0 20 -5 25 -25 25
-20 0 -25 -5 -25 -25z"/>
<path d="M2626 3074 c-4 -10 -1 -24 7 -31 19 -19 49 -5 45 21 -4 27 -43 34
-52 10z"/>
<path d="M2927 3066 c-4 -9 1 -22 9 -30 20 -20 46 -9 42 18 -4 25 -43 34 -51
12z"/>
<path d="M1964 3006 c-8 -21 3 -36 27 -36 15 0 20 6 17 22 -4 27 -35 37 -44
14z"/>
<path d="M2250 2987 c0 -27 19 -40 39 -27 20 12 8 45 -17 48 -18 3 -22 -1 -22
-21z"/>
<path d="M2554 2996 c-9 -24 4 -48 23 -44 12 2 18 12 18 28 0 29 -32 41 -41
16z"/>
<path d="M2844 2996 c-9 -24 4 -48 23 -44 12 2 18 12 18 28 0 29 -32 41 -41
16z"/>
</g>
</svg>
