<svg xmlns="http://www.w3.org/2000/svg" width="16.325" height="21.088" viewBox="0 0 16.325 21.088">
  <path id="Icon_awesome-hourglass-half" data-name="Icon awesome-hourglass-half" d="M15.305,0H1.02A1,1,0,0,0,0,.989v.659a1,1,0,0,0,1.02.989,8.166,8.166,0,0,0,5.137,7.908A8.166,8.166,0,0,0,1.02,18.452,1,1,0,0,0,0,19.441V20.1a1,1,0,0,0,1.02.989H15.305a1,1,0,0,0,1.02-.989v-.659a1,1,0,0,0-1.02-.989,8.166,8.166,0,0,0-5.137-7.908,8.166,8.166,0,0,0,5.137-7.908,1,1,0,0,0,1.02-.989V.989A1,1,0,0,0,15.305,0ZM12.113,15.816h-7.9c.725-1.927,2.215-3.3,3.95-3.3S11.388,13.888,12.113,15.816Zm0-10.544h-7.9a7.512,7.512,0,0,1-.471-2.636h8.843a7.512,7.512,0,0,1-.47,2.636Z" fill="#fff"/>
</svg>
