<?xml version="1.0" standalone="no"?>
<!DOCTYPE svg PUBLIC "-//W3C//DTD SVG 20010904//EN"
 "http://www.w3.org/TR/2001/REC-SVG-20010904/DTD/svg10.dtd">
<svg version="1.0" xmlns="http://www.w3.org/2000/svg"
 width="508.000000pt" height="491.000000pt" viewBox="0 0 508.000000 491.000000"
 preserveAspectRatio="xMidYMid meet">

<g transform="translate(0.000000,491.000000) scale(0.100000,-0.100000)"
fill="#000000" stroke="none">
<path d="M2365 3103 c-31 -34 -41 -81 -26 -126 12 -36 8 -48 -108 -290 -21
-45 -52 -111 -69 -147 -38 -82 -112 -241 -162 -345 -21 -44 -68 -144 -104
-223 l-66 -142 0 -98 c0 -63 4 -102 12 -110 8 -8 50 -12 125 -12 l113 0 0 -27
c0 -71 82 -135 151 -116 l36 10 6 -62 c7 -76 35 -125 82 -148 52 -25 88 -22
123 11 34 32 48 74 58 180 6 71 8 73 30 68 41 -11 88 17 108 63 l19 41 146 0
c229 1 256 4 295 31 69 47 109 187 109 379 0 311 -127 605 -355 826 -83 80
-223 184 -248 184 -5 0 -13 6 -17 14 -16 29 -115 66 -175 66 -50 0 -61 -4 -83
-27z m152 -39 c24 -9 43 -20 43 -24 0 -5 19 -18 43 -30 132 -68 301 -217 382
-336 83 -121 139 -247 178 -394 18 -70 22 -113 22 -240 0 -219 -25 -277 -110
-256 -41 10 -46 34 -34 145 35 302 -72 572 -319 809 -78 75 -249 202 -272 202
-13 0 -59 51 -66 73 -8 25 33 67 65 67 14 0 45 -7 68 -16z m-97 -169 c6 -8 21
-17 33 -21 19 -6 72 -39 87 -54 3 -3 23 -18 45 -35 278 -204 449 -555 404
-830 -10 -65 -15 -75 -33 -76 -11 -1 -82 -4 -156 -8 l-135 -6 -7 -80 c-14
-173 -41 -229 -98 -200 -21 11 -29 24 -34 55 -5 31 -11 40 -26 40 -19 0 -20
-7 -20 -147 0 -121 -3 -154 -18 -183 -21 -43 -64 -51 -102 -19 -24 20 -25 27
-28 145 -3 91 -7 126 -18 135 -18 15 -44 -4 -44 -32 0 -29 -36 -59 -70 -59
-53 0 -65 34 -65 190 l0 135 -112 3 c-62 1 -113 7 -113 11 0 15 39 100 160
356 29 61 65 137 80 170 15 33 45 98 67 145 116 244 146 308 160 343 17 40 24
45 43 22z m570 -1105 c15 -36 35 -48 93 -59 l42 -7 -30 -19 c-26 -18 -50 -20
-212 -23 l-183 -3 6 58 c3 32 7 64 10 71 2 9 38 12 132 12 l130 0 12 -30z
m-910 -55 l0 -65 -95 0 -95 0 0 65 0 65 95 0 95 0 0 -65z"/>
<path d="M2405 2706 c-54 -23 -92 -63 -105 -111 -24 -85 6 -166 78 -216 29
-19 48 -24 102 -24 75 0 103 13 147 72 24 32 28 45 28 104 0 60 -3 71 -31 106
-56 71 -148 100 -219 69z m149 -77 c75 -65 66 -165 -18 -210 -56 -29 -104 -21
-151 26 -45 46 -53 90 -26 143 28 54 56 72 113 72 39 0 54 -6 82 -31z"/>
<path d="M2454 2605 c-7 -18 3 -35 21 -35 18 0 26 15 19 34 -8 20 -33 21 -40
1z"/>
<path d="M2420 2480 c0 -13 7 -20 20 -20 13 0 20 7 20 20 0 13 -7 20 -20 20
-13 0 -20 -7 -20 -20z"/>
<path d="M2743 2454 c-6 -16 15 -37 29 -28 4 3 8 14 8 25 0 23 -28 26 -37 3z"/>
<path d="M2265 2320 c-4 -7 -3 -16 3 -22 14 -14 45 -2 40 15 -6 16 -34 21 -43
7z"/>
<path d="M2572 2303 c-85 -42 -109 -131 -52 -196 27 -31 29 -39 24 -80 -6 -41
-4 -47 20 -62 17 -11 55 -19 109 -22 97 -6 102 -3 118 81 9 40 21 66 45 92 19
19 34 46 34 59 0 45 -41 100 -97 129 -42 21 -157 21 -201 -1z m157 -43 c81
-23 106 -89 48 -125 -29 -19 -32 -25 -35 -78 l-3 -57 -69 0 -70 0 0 59 c0 51
-3 61 -24 75 -33 21 -40 49 -22 84 22 43 104 63 175 42z"/>
<path d="M2363 2184 c-3 -8 -1 -20 6 -27 14 -14 47 15 37 32 -10 16 -36 13
-43 -5z"/>
<path d="M2123 2159 c-69 -44 -68 -157 3 -198 70 -42 154 -13 175 60 34 111
-81 200 -178 138z m120 -61 c22 -26 21 -47 -2 -77 -13 -17 -29 -24 -51 -24
-22 0 -38 7 -51 24 -25 32 -24 51 6 84 21 21 31 26 53 21 15 -4 35 -16 45 -28z"/>
<path d="M2890 1985 c-10 -11 -10 -19 -2 -27 15 -15 44 -2 40 19 -4 23 -22 27
-38 8z"/>
<path d="M2424 1975 c-4 -9 -2 -21 4 -27 15 -15 44 -1 40 19 -4 23 -36 29 -44
8z"/>
</g>
</svg>
