<?xml version="1.0" standalone="no"?>
<!DOCTYPE svg PUBLIC "-//W3C//DTD SVG 20010904//EN"
 "http://www.w3.org/TR/2001/REC-SVG-20010904/DTD/svg10.dtd">
<svg version="1.0" xmlns="http://www.w3.org/2000/svg"
 width="474.000000pt" height="527.000000pt" viewBox="0 0 474.000000 527.000000"
 preserveAspectRatio="xMidYMid meet">

<g transform="translate(0.000000,527.000000) scale(0.100000,-0.100000)"
fill="#000000" stroke="none">
<path d="M1800 3274 c-99 -5 -289 -24 -443 -44 -131 -17 -142 -20 -194 -56
-66 -45 -93 -79 -132 -165 -85 -188 -57 -353 78 -452 31 -24 76 -49 99 -56
l42 -14 0 -76 c1 -200 38 -301 145 -399 36 -33 93 -73 127 -90 109 -53 155
-57 545 -43 547 19 579 22 660 65 188 99 262 236 263 486 l0 85 48 22 c64 30
135 101 169 172 24 48 27 68 27 146 0 80 -3 98 -31 157 -50 107 -159 202 -268
233 -27 8 -93 17 -145 19 -135 6 -912 14 -990 10z m355 -64 c3 -5 -16 -81 -44
-167 -49 -156 -98 -318 -120 -400 l-11 -41 -73 -6 c-39 -3 -133 -8 -207 -12
-74 -3 -157 -10 -184 -15 -27 -5 -52 -7 -54 -4 -3 3 17 76 45 163 29 86 72
222 98 302 25 80 50 152 55 160 6 9 43 15 132 20 198 11 356 11 363 0z m541
-12 c4 -4 -14 -72 -39 -150 -25 -79 -67 -212 -93 -295 l-48 -153 -238 0 c-137
0 -238 4 -238 9 0 5 9 33 20 63 11 29 52 157 90 283 39 127 72 236 75 243 4
11 51 13 234 10 126 -2 233 -6 237 -10z m272 -34 c63 -31 142 -105 170 -160
33 -64 47 -155 33 -211 -23 -93 -113 -192 -194 -214 -31 -8 -85 -8 -212 1 -93
7 -173 15 -176 19 -4 3 16 76 43 161 27 85 70 220 95 299 l46 144 71 -7 c45
-4 90 -16 124 -32z m-1383 9 c-3 -10 -29 -88 -56 -173 -54 -168 -124 -379
-140 -422 -31 -80 -238 -14 -309 99 -27 41 -30 56 -30 123 0 162 81 304 197
348 15 5 75 15 133 22 58 6 112 13 120 15 8 1 32 3 54 4 32 1 37 -2 31 -16z
m995 -643 c91 -6 204 -13 251 -16 l87 -7 5 -41 c10 -73 -9 -221 -37 -281 -33
-72 -106 -144 -187 -183 -63 -30 -68 -31 -294 -41 -126 -6 -325 -16 -441 -22
-234 -13 -303 -6 -403 38 -52 22 -126 76 -164 118 -31 35 -66 117 -76 185 -15
92 -14 200 2 200 13 1 95 12 222 30 71 11 442 24 755 28 63 0 189 -3 280 -8z"/>
</g>
</svg>
