<?xml version="1.0" standalone="no"?>
<!DOCTYPE svg PUBLIC "-//W3C//DTD SVG 20010904//EN"
 "http://www.w3.org/TR/2001/REC-SVG-20010904/DTD/svg10.dtd">
<svg version="1.0" xmlns="http://www.w3.org/2000/svg"
 width="489.000000pt" height="510.000000pt" viewBox="0 0 489.000000 510.000000"
 preserveAspectRatio="xMidYMid meet">

<g transform="translate(0.000000,510.000000) scale(0.100000,-0.100000)"
fill="#000000" stroke="none">
<path d="M1197 2277 c-65 -89 -101 -222 -94 -347 6 -114 36 -191 97 -253 l47
-47 459 2 c450 3 459 3 459 23 0 11 -13 28 -30 39 -17 11 -49 42 -72 70 -71
83 -92 203 -54 311 25 72 59 114 121 150 31 18 49 35 48 45 -3 13 -53 16 -373
22 -204 3 -418 8 -478 11 l-107 6 -23 -32z m516 -29 c185 0 337 -3 337 -6 0
-3 -17 -25 -37 -50 -47 -57 -73 -137 -73 -222 0 -92 24 -165 76 -232 l44 -58
-399 0 -399 0 -32 37 c-61 69 -75 114 -75 243 0 128 19 197 71 265 l28 37 60
-6 c34 -4 213 -7 399 -8z"/>
<path d="M3390 2266 c-30 -12 -80 -39 -110 -59 -30 -20 -58 -38 -62 -39 -10
-4 -28 -100 -28 -150 0 -64 30 -190 59 -248 36 -71 109 -131 194 -159 l65 -22
108 53 c103 50 110 56 134 103 21 43 25 63 24 140 0 74 -5 102 -29 160 -34 86
-56 119 -116 173 -83 76 -145 88 -239 48z m145 -45 c92 -42 182 -185 192 -307
7 -88 -8 -145 -48 -178 -37 -32 -70 -33 -118 -4 -56 33 -90 68 -127 132 -83
140 -85 300 -5 353 41 28 54 28 106 4z m-209 -138 c0 -90 16 -157 56 -237 26
-51 115 -145 152 -161 l29 -13 -28 -15 c-26 -13 -34 -13 -87 5 -96 33 -164
117 -192 238 -16 66 -19 166 -8 208 6 18 53 59 72 61 3 1 6 -38 6 -86z"/>
<path d="M3510 2034 c-14 -36 1 -84 34 -108 l28 -21 20 25 c22 27 19 66 -7
107 -22 32 -63 31 -75 -3z"/>
<path d="M2278 2218 c-63 -87 -83 -150 -83 -268 0 -113 18 -172 73 -244 63
-83 73 -87 180 -80 65 5 95 11 99 21 3 8 -17 35 -47 65 -73 72 -100 133 -100
229 0 130 35 202 138 282 13 10 22 26 20 35 -3 15 -19 17 -118 20 l-116 3 -46
-63z m160 -15 c-49 -54 -69 -93 -84 -165 -26 -123 -8 -213 61 -309 19 -27 35
-51 35 -54 0 -9 -71 -5 -90 5 -29 15 -79 93 -101 157 -38 112 -16 241 59 348
31 44 32 45 89 45 l57 0 -26 -27z"/>
<path d="M2626 2226 c-63 -61 -88 -110 -107 -204 -16 -86 -6 -154 36 -237 38
-76 55 -98 99 -133 24 -19 41 -22 110 -22 44 0 91 3 104 6 24 7 31 44 8 44 -7
0 -41 29 -74 65 -45 48 -65 79 -77 117 -19 66 -19 143 0 199 18 49 83 122 127
140 28 11 46 48 33 68 -4 7 -46 11 -104 11 l-98 0 -57 -54z m126 -34 c-115
-106 -121 -318 -12 -459 l40 -53 -45 0 c-41 0 -47 3 -89 55 -84 103 -104 204
-66 328 29 94 107 166 179 167 l34 0 -41 -38z"/>
<path d="M2971 2220 c-72 -102 -94 -170 -95 -281 -1 -91 1 -99 37 -172 25 -51
52 -88 80 -111 l43 -35 92 6 c125 8 130 17 53 88 -80 75 -115 145 -113 230 1
106 55 204 140 256 36 23 42 53 13 69 -11 5 -62 10 -114 10 l-94 0 -42 -60z
m146 4 c22 -6 22 -8 -16 -50 -83 -94 -112 -258 -62 -354 13 -25 39 -66 57 -91
18 -25 31 -49 27 -53 -3 -3 -21 -6 -38 -6 -40 0 -99 55 -128 119 -31 70 -35
208 -8 285 42 120 97 169 168 150z"/>
</g>
</svg>
