<svg xmlns="http://www.w3.org/2000/svg" width="42.61" height="42.546" viewBox="0 0 42.61 42.546">
  <g id="Group_21" data-name="Group 21" transform="translate(-343.39 -39)">
    <g id="Icon_ionic-ios-notifications" data-name="Icon ionic-ios-notifications" transform="translate(336.629 37.07)">
      <path id="Path_16" data-name="Path 16" d="M17.993,32.063c2.187,0,3.382-1.547,3.382-3.727H14.6C14.6,30.516,15.8,32.063,17.993,32.063Z" transform="translate(7.043 12.414)" fill="#3368b9"/>
      <path id="Path_17" data-name="Path 17" d="M42.907,35.975c-1.762-2.2-5.23-3.482-5.23-13.313,0-10.09-4.715-14.146-9.11-15.119-.412-.1-.71-.227-.71-.638V6.591a2.8,2.8,0,0,0-5.585,0V6.9c0,.4-.3.541-.71.638-4.406.984-9.11,5.029-9.11,15.119,0,9.831-3.468,11.107-5.23,13.313a2.141,2.141,0,0,0,1.82,3.439H41.1A2.141,2.141,0,0,0,42.907,35.975Z" transform="translate(0 0)" fill="#3368b9"/>
    </g>
    <g id="Group_19" data-name="Group 19" transform="translate(-12 -1.626)">
      <g id="Group_20" data-name="Group 20" transform="translate(376 41)">
        <ellipse id="Ellipse_17" data-name="Ellipse 17" cx="11" cy="10.5" rx="11" ry="10.5" transform="translate(0 -0.374)" fill="#fa4343"/>
      </g>
    </g>
  </g>
</svg>
