<?xml version="1.0" standalone="no"?>
<!DOCTYPE svg PUBLIC "-//W3C//DTD SVG 20010904//EN"
 "http://www.w3.org/TR/2001/REC-SVG-20010904/DTD/svg10.dtd">
<svg version="1.0" xmlns="http://www.w3.org/2000/svg"
 width="495.000000pt" height="504.000000pt" viewBox="0 0 495.000000 504.000000"
 preserveAspectRatio="xMidYMid meet">

<g transform="translate(0.000000,504.000000) scale(0.100000,-0.100000)"
fill="#000000" stroke="none">
<path d="M2351 3481 c-20 -13 -41 -111 -43 -196 0 -64 5 -93 25 -145 38 -97
40 -109 39 -182 -1 -40 2 -69 9 -74 22 -13 41 24 46 87 4 55 1 75 -27 144 -37
93 -47 178 -30 255 6 30 14 67 17 81 5 28 -14 43 -36 30z"/>
<path d="M2443 3418 c-15 -20 -33 -78 -33 -109 0 -15 14 -65 31 -111 17 -46
36 -110 43 -143 10 -49 17 -61 34 -63 13 -2 22 2 23 10 4 50 -7 105 -37 184
-36 98 -41 132 -23 183 15 44 -13 80 -38 49z"/>
<path d="M2995 3078 c-33 -18 -55 -51 -55 -85 0 -38 43 -93 73 -93 l21 0 -20
-21 -21 -20 -34 20 c-19 12 -45 21 -59 21 -36 0 -84 -32 -110 -75 -21 -34 -26
-36 -59 -31 -167 26 -465 30 -604 7 -37 -6 -50 -5 -59 7 -39 46 -139 86 -274
107 -123 20 -128 16 -121 -89 3 -44 9 -91 12 -102 6 -18 1 -24 -26 -33 -127
-44 -165 -157 -119 -351 37 -154 115 -289 237 -413 125 -126 265 -202 455
-246 104 -24 376 -5 488 35 79 28 293 143 352 189 119 93 235 273 273 422 20
79 19 246 -2 286 -18 35 -91 82 -161 104 -44 14 -56 23 -67 49 -7 18 -25 40
-40 50 -26 17 -26 17 -7 38 33 35 52 83 52 126 0 52 -13 76 -50 95 -34 18 -48
18 -75 3z m60 -65 c19 -19 14 -68 -10 -93 -13 -13 -15 -12 -15 7 0 12 -4 25
-10 28 -23 14 -30 43 -14 59 20 20 29 20 49 -1z m-1240 -158 c22 -3 69 -15
104 -27 77 -25 154 -93 164 -147 9 -43 9 -116 0 -124 -3 -4 -19 19 -34 50 -16
32 -45 76 -66 99 -46 50 -129 107 -143 99 -23 -14 -6 -43 53 -91 61 -50 108
-119 127 -184 8 -30 8 -30 -30 -30 -38 0 -110 27 -141 52 -55 46 -109 164
-124 271 l-7 49 29 -5 c15 -3 46 -8 68 -12z m1135 -40 c13 -14 33 -25 45 -25
34 0 75 -37 75 -68 0 -78 -103 -207 -223 -279 -34 -20 -77 -48 -95 -61 -27
-21 -53 -27 -154 -38 -67 -7 -124 -12 -126 -9 -2 2 9 10 25 19 34 18 116 95
165 156 19 25 68 101 108 170 39 69 79 133 88 143 22 25 64 21 92 -8z m-214
-67 c5 -6 -44 -96 -58 -104 -5 -4 -80 -6 -167 -5 -141 1 -249 -7 -338 -25 -33
-6 -33 -6 -33 34 0 22 -4 52 -10 66 -10 27 -11 27 60 40 31 6 539 0 546 -6z
m484 -108 c84 -42 98 -71 61 -120 -15 -19 -22 -22 -33 -12 -8 6 -47 22 -87 36
-40 14 -75 27 -77 29 -3 3 5 27 17 55 20 46 24 49 48 42 15 -4 47 -17 71 -30z
m-1496 -15 c6 -11 19 -31 29 -44 9 -13 17 -28 17 -32 0 -5 -21 -20 -47 -34
-27 -14 -56 -31 -65 -37 -14 -10 -22 -8 -48 17 -49 47 -37 82 50 134 40 24 49
23 64 -4z m916 -42 c0 -9 -76 -105 -98 -124 -11 -9 -53 -42 -94 -73 -83 -62
-86 -63 -228 -46 -277 35 -395 57 -474 90 l-38 16 53 27 54 27 54 -26 c40 -20
76 -28 138 -32 96 -6 108 1 124 63 10 39 14 42 60 54 86 22 449 42 449 24z
m485 -85 c33 -11 64 -24 69 -29 14 -13 -78 -48 -187 -70 -144 -30 -156 -25
-76 34 35 26 73 59 84 73 12 16 24 23 34 18 9 -3 43 -15 76 -26z m185 -52 c0
-28 -31 -151 -47 -191 -77 -184 -194 -305 -393 -407 -154 -78 -199 -93 -357
-113 -142 -18 -189 -16 -329 20 -267 68 -486 277 -575 548 -16 49 -29 100 -29
113 l0 24 40 -20 c133 -68 333 -112 640 -139 114 -11 307 -1 475 23 55 8 127
17 160 21 155 16 312 65 380 118 25 20 35 21 35 3z"/>
</g>
</svg>
